<svg xmlns="http://www.w3.org/2000/svg" width="1180" height="610" viewBox="0 0 1180 610"
  font-family="ui-monospace,SFMono-Regular,Menlo,Consolas,'Liberation Mono',monospace"
  role="img" aria-label="Moningi Rohit — profile.sh --live">

<defs>
  <!-- Animated accent gradient (purple → cyan → green, loops) -->
  <linearGradient id="accent" x1="0" y1="0" x2="1" y2="0">
    <stop offset="0" stop-color="#7C3AED"><animate attributeName="stop-color" values="#7C3AED;#22D3EE;#10B981;#7C3AED" dur="10s" repeatCount="indefinite"/></stop>
    <stop offset="0.5" stop-color="#22D3EE"><animate attributeName="stop-color" values="#22D3EE;#10B981;#7C3AED;#22D3EE" dur="10s" repeatCount="indefinite"/></stop>
    <stop offset="1" stop-color="#10B981"><animate attributeName="stop-color" values="#10B981;#7C3AED;#22D3EE;#10B981" dur="10s" repeatCount="indefinite"/></stop>
  </linearGradient>

  <!-- Portrait dot gradient — animated shimmer -->
  <linearGradient id="dotGrad" x1="0" y1="0" x2="0" y2="520" gradientUnits="userSpaceOnUse">
    <stop offset="0" stop-color="#A78BFA"/>
    <stop offset="0.45" stop-color="#7C3AED"/>
    <stop offset="1" stop-color="#22D3EE"/>
    <animateTransform attributeName="gradientTransform" type="translate" values="0 -120; 0 120; 0 -120" dur="9s" repeatCount="indefinite"/>
  </linearGradient>

  <!-- Background panel gradient -->
  <linearGradient id="panelGrad" x1="0" y1="0" x2="0" y2="1">
    <stop offset="0" stop-color="#0A101F"/>
    <stop offset="1" stop-color="#0C1426"/>
  </linearGradient>

  <!-- Info panel gradient -->
  <linearGradient id="infoPanelGrad" x1="0" y1="0" x2="0" y2="1">
    <stop offset="0" stop-color="#0D1530"/>
    <stop offset="1" stop-color="#0A101F"/>
  </linearGradient>

  <!-- Glow filters -->
  <filter id="glow8" x="-60%" y="-60%" width="220%" height="220%">
    <feGaussianBlur stdDeviation="8"/>
  </filter>
  <filter id="glow3" x="-60%" y="-60%" width="220%" height="220%">
    <feGaussianBlur stdDeviation="3"/>
  </filter>
  <filter id="txtGlow" x="-30%" y="-30%" width="160%" height="160%">
    <feGaussianBlur stdDeviation="0.9" result="b"/>
    <feMerge><feMergeNode in="b"/><feMergeNode in="SourceGraphic"/></feMerge>
  </filter>
  <filter id="softGlow" x="-20%" y="-20%" width="140%" height="140%">
    <feGaussianBlur stdDeviation="4" result="b"/>
    <feMerge><feMergeNode in="b"/><feMergeNode in="SourceGraphic"/></feMerge>
  </filter>

  <!-- Clip path for the terminal window -->
  <clipPath id="winClip">
    <rect x="2" y="2" width="1176" height="606" rx="18"/>
  </clipPath>

  <!-- Dot grid pattern for texture -->
  <pattern id="dotGrid" x="0" y="0" width="20" height="20" patternUnits="userSpaceOnUse">
    <circle cx="1" cy="1" r="0.8" fill="#22D3EE" opacity="0.035"/>
  </pattern>
</defs>

<!-- Terminal window base -->
<rect x="2" y="2" width="1176" height="606" rx="18" fill="#070B16"/>

<g clip-path="url(#winClip)">

  <!-- Panel fill -->
  <rect x="2" y="2" width="1176" height="606" fill="url(#panelGrad)"/>

  <!-- Dot-grid texture overlay -->
  <rect x="2" y="2" width="1176" height="606" fill="url(#dotGrid)"/>

  <!-- Titlebar -->
  <rect x="2" y="2" width="1176" height="46" fill="#0B1222"/>
  <line x1="2" y1="48" x2="1178" y2="48" stroke="rgba(255,255,255,0.10)"/>

  <!-- Traffic lights -->
  <circle cx="30" cy="25" r="5.5" fill="#ff5f56"/>
  <circle cx="50" cy="25" r="5.5" fill="#ffbd2e"/>
  <circle cx="70" cy="25" r="5.5" fill="#27c93f"/>

  <!-- Titlebar text -->
  <text x="590" y="29" text-anchor="middle" font-size="12" fill="#94A3B8">rohit@ayaska — % ./profile.sh --live</text>

  <!-- Handle pill (@AYASKA-in) top right -->
  <g transform="translate(1058, 12)">
    <rect width="110" height="24" rx="12" fill="rgba(34,211,238,0.12)" stroke="#22D3EE" stroke-width="0.8"/>
    <circle cx="16" cy="12" r="3.5" fill="#22D3EE" opacity="0.9">
      <animate attributeName="opacity" values="0.4;1;0.4" dur="2s" repeatCount="indefinite"/>
    </circle>
    <text x="28" y="16" font-size="11" letter-spacing="1" fill="#22D3EE">@AYASKA-in</text>
  </g>

  <!-- ─────────────────────────────────────────────── -->
  <!-- LEFT: VISUAL.MAP portrait panel                -->
  <!-- ─────────────────────────────────────────────── -->

  <text x="38" y="74" font-size="10" letter-spacing="3" fill="#475569">VISUAL.MAP</text>

  <!-- Portrait frame outer glow -->
  <rect x="36" y="84" width="400" height="492" rx="10" fill="none" stroke="#7C3AED" stroke-width="2" opacity="0.5" filter="url(#glow3)"/>
  <!-- Portrait frame -->
  <rect x="36" y="84" width="400" height="492" rx="10" fill="#0A101F" stroke="rgba(124,58,237,0.35)"/>

  <!-- Portrait dot-matrix artwork — Rohit's dithered portrait -->
  <!-- Groups fade in sequentially (shimmer intro), then loop morphs portraits into logos -->
  <g transform="translate(50,88) scale(1.22,1.43)" fill="url(#dotGrad)" shape-rendering="crispEdges">
    <set attributeName="opacity" to="0" begin="3.2s"/>

    <!-- Group 1 — scattered intro dots -->
    <g opacity="0"><animate attributeName="opacity" values="0;1" dur="0.9s" begin="0.20s" fill="freeze" calcMode="spline" keyTimes="0;1" keySplines=".4 0 .2 1"/>
    <path d="M148 35h1v1h-1zM120 48h1v1h-1zM165 52h1v1h-1zM80 60h1v1h-1zM200 68h1v1h-1zM55 80h1v1h-1zM210 82h1v1h-1zM90 90h1v1h-1zM155 92h1v1h-1zM175 95h1v1h-1zM95 100h1v1h-1zM130 103h1v1h-1zM160 106h1v1h-1zM85 110h1v1h-1zM200 112h1v1h-1zM115 118h1v1h-1zM140 120h3v1h-3zM75 125h1v1h-1zM180 128h1v1h-1zM100 132h1v1h-1zM155 136h2v1h-2zM220 140h1v1h-1zM90 145h1v1h-1zM170 148h1v1h-1zM105 152h1v1h-1zM245 155h1v1h-1zM130 158h1v1h-1zM195 162h1v1h-1zM80 168h1v1h-1zM215 170h1v1h-1zM145 175h2v1h-2zM270 178h1v1h-1zM110 182h1v1h-1zM185 185h1v1h-1zM55 190h1v1h-1zM230 192h1v1h-1zM165 198h1v1h-1zM95 202h1v1h-1zM280 206h1v1h-1zM120 210h2v1h-2zM200 215h1v1h-1zM150 220h1v1h-1zM70 225h1v1h-1zM240 228h1v1h-1zM180 232h1v1h-1zM105 236h1v1h-1zM290 238h1v1h-1zM140 242h1v1h-1zM220 245h1v1h-1zM85 250h1v1h-1zM265 252h1v1h-1zM175 255h1v1h-1zM115 260h1v1h-1zM300 262h1v1h-1zM195 265h1v1h-1zM140 270h1v1h-1zM75 275h1v1h-1zM255 278h1v1h-1zM180 282h1v1h-1zM110 285h1v1h-1zM285 288h1v1h-1zM165 292h1v1h-1zM95 295h1v1h-1zM240 298h1v1h-1zM145 302h1v1h-1zM210 305h1v1h-1zM80 310h1v1h-1zM270 312h1v1h-1zM155 315h1v1h-1zM100 320h1v1h-1zM230 322h1v1h-1zM185 325h1v1h-1zM120 328h1v1h-1z"/>
    </g>

    <!-- Group 2 -->
    <g opacity="0"><animate attributeName="opacity" values="0;1" dur="0.9s" begin="0.27s" fill="freeze" calcMode="spline" keyTimes="0;1" keySplines=".4 0 .2 1"/>
    <path d="M135 38h2v1h-2zM185 45h1v1h-1zM60 55h1v1h-1zM205 72h1v1h-1zM145 85h3v1h-3zM110 93h2v1h-2zM170 98h1v1h-1zM135 105h1v1h-1zM190 108h1v1h-1zM100 115h1v1h-1zM165 122h1v1h-1zM80 130h1v1h-1zM210 135h1v1h-1zM145 140h2v1h-2zM90 148h1v1h-1zM185 152h1v1h-1zM125 158h1v1h-1zM250 162h1v1h-1zM170 168h1v1h-1zM105 175h1v1h-1zM225 178h1v1h-1zM155 185h2v1h-2zM85 192h1v1h-1zM240 195h1v1h-1zM195 200h1v1h-1zM130 205h1v1h-1zM275 208h1v1h-1zM160 215h1v1h-1zM95 220h1v1h-1zM235 225h1v1h-1zM175 230h1v1h-1zM115 235h1v1h-1zM295 240h1v1h-1zM210 245h1v1h-1zM150 252h1v1h-1zM80 258h1v1h-1zM268 260h1v1h-1zM190 265h1v1h-1zM120 270h1v1h-1zM255 272h1v1h-1zM185 278h1v1h-1zM110 282h1v1h-1zM280 285h1v1h-1zM160 290h1v1h-1zM90 295h1v1h-1zM240 298h1v1h-1zM200 305h1v1h-1zM140 308h1v1h-1zM275 312h1v1h-1zM175 318h1v1h-1zM105 322h1v1h-1zM225 325h1v1h-1zM165 330h1v1h-1z"/>
    </g>

    <!-- Group 3 — face structure dots (forehead, cheeks, chin) -->
    <g opacity="0"><animate attributeName="opacity" values="0;1" dur="0.9s" begin="0.34s" fill="freeze" calcMode="spline" keyTimes="0;1" keySplines=".4 0 .2 1"/>
    <path d="M130 88h5v1h-5zM140 90h8v1h-8zM125 92h12v1h-12zM118 95h18v1h-18zM115 98h22v1h-22zM112 102h28v1h-28zM110 106h30v1h-30zM108 110h32v1h-32zM107 114h33v1h-33zM106 118h34v1h-34zM105 122h35v1h-35zM105 126h35v1h-35zM104 130h36v1h-36zM104 134h36v1h-36zM104 138h36v1h-36zM105 142h34v1h-34zM106 146h32v1h-32zM108 150h28v1h-28zM110 155h24v1h-24zM115 160h18v1h-18zM120 165h12v1h-12zM128 170h8v1h-8zM133 175h6v1h-6zM130 180h8v1h-8zM126 185h10v1h-10zM122 190h14v1h-14zM118 195h4v1h-4zM136 195h4v1h-4zM115 200h3v1h-3zM139 200h3v1h-3zM112 205h2v1h-2zM142 205h2v1h-2zM110 210h2v1h-2zM144 210h2v1h-2zM108 215h2v1h-2zM146 215h2v1h-2zM107 220h2v1h-2zM147 220h2v1h-2zM108 225h3v1h-3zM146 225h3v1h-3zM110 230h4v1h-4zM144 230h4v1h-4zM113 235h5v1h-5zM141 235h5v1h-5zM116 240h10v1h-10zM138 240h9v1h-9zM120 245h18v1h-18zM124 250h10v1h-10zM126 255h6v1h-6zM128 258h3v1h-3z"/>
    </g>

    <!-- Group 4 — eyes, nose, lips features -->
    <g opacity="0"><animate attributeName="opacity" values="0;1" dur="0.9s" begin="0.41s" fill="freeze" calcMode="spline" keyTimes="0;1" keySplines=".4 0 .2 1"/>
    <path d="M115 145h6v1h-6zM135 145h6v1h-6zM113 148h8v1h-8zM133 148h8v1h-8zM111 151h10v1h-10zM131 151h10v1h-10zM110 154h12v1h-12zM130 154h12v1h-12zM111 157h10v1h-10zM131 157h10v1h-10zM113 160h6v1h-6zM133 160h6v1h-6zM128 170h4v1h-4zM128 174h4v1h-4zM126 178h6v1h-6zM122 190h3v1h-3zM133 190h3v1h-3zM118 194h5v1h-5zM135 194h5v1h-5zM116 198h6v1h-6zM135 198h6v1h-6zM118 202h5v1h-5zM134 202h5v1h-5zM120 206h3v1h-3zM134 206h3v1h-3zM115 218h28v1h-28zM116 222h26v1h-26zM118 226h24v1h-24zM120 230h8v1h-8zM130 230h8v1h-8zM122 234h6v1h-6zM130 234h6v1h-6zM124 238h10v1h-10zM125 242h8v1h-8z"/>
    </g>

    <!-- Group 5 — hair, shoulders, body outline -->
    <g opacity="0"><animate attributeName="opacity" values="0;1" dur="0.9s" begin="0.48s" fill="freeze" calcMode="spline" keyTimes="0;1" keySplines=".4 0 .2 1"/>
    <path d="M115 84h10v1h-10zM110 86h20v1h-20zM105 88h25v1h-25zM100 90h8v1h-8zM153 90h5v1h-5zM98 92h8v1h-8zM155 92h5v1h-5zM96 94h10v1h-10zM155 94h6v1h-6zM94 96h12v1h-12zM154 96h7v1h-7zM92 98h14v1h-14zM153 98h8v1h-8zM90 100h8v1h-8zM153 100h9v1h-9zM88 102h6v1h-6zM153 102h8v1h-8zM60 260h20v1h-20zM175 260h20v1h-20zM50 265h28v1h-28zM178 265h28v1h-28zM45 270h35v1h-35zM180 270h35v1h-35zM40 275h38v1h-38zM182 275h38v1h-38zM35 280h42v1h-42zM183 280h42v1h-42zM30 285h45v1h-45zM185 285h45v1h-45zM25 290h50v1h-50zM185 290h50v1h-50zM20 295h55v1h-55zM186 295h55v1h-55zM15 300h60v1h-60zM188 300h60v1h-60zM10 305h68v1h-68zM190 305h68v1h-68zM8 310h72v1h-72zM192 310h72v1h-72zM6 315h76v1h-76zM194 315h76v1h-76zM4 320h80v1h-80zM196 320h80v1h-80zM2 325h84v1h-84zM198 325h84v1h-84zM0 330h89v1h-89zM200 330h89v1h-89zM0 335h300v1h-300z"/>
    </g>

    <!-- Group 6 — shirt/collar details -->
    <g opacity="0"><animate attributeName="opacity" values="0;1" dur="0.9s" begin="0.55s" fill="freeze" calcMode="spline" keyTimes="0;1" keySplines=".4 0 .2 1"/>
    <path d="M115 260h12v1h-12zM131 260h12v1h-12zM112 263h14v1h-14zM132 263h14v1h-14zM109 266h16v1h-16zM133 266h16v1h-16zM106 269h18v1h-18zM134 269h18v1h-18zM104 272h20v1h-20zM135 272h20v1h-20zM102 275h22v1h-22zM136 275h22v1h-22zM100 278h24v1h-24zM136 278h24v1h-24zM98 281h26v1h-26zM138 281h26v1h-26zM95 284h30v1h-30zM140 284h30v1h-30z"/>
    </g>

    <!-- Group 7 — neck -->
    <g opacity="0"><animate attributeName="opacity" values="0;1" dur="0.9s" begin="0.62s" fill="freeze" calcMode="spline" keyTimes="0;1" keySplines=".4 0 .2 1"/>
    <path d="M124 248h10v1h-10zM122 251h12v1h-12zM120 254h12v1h-12zM119 257h12v1h-12zM118 260h12v1h-12zM117 263h14v1h-14zM116 266h16v1h-16zM115 269h18v1h-18z"/>
    </g>

    <!-- Group 8 — fine detail scatter -->
    <g opacity="0"><animate attributeName="opacity" values="0;1" dur="0.9s" begin="0.69s" fill="freeze" calcMode="spline" keyTimes="0;1" keySplines=".4 0 .2 1"/>
    <path d="M165 92h5v1h-5zM170 96h4v1h-4zM168 100h6v1h-6zM165 104h8v1h-8zM163 108h10v1h-10zM161 112h10v1h-10zM160 116h10v1h-10zM159 120h10v1h-10zM158 124h10v1h-10zM158 128h9v1h-9zM158 132h8v1h-8zM159 136h7v1h-7zM160 140h6v1h-6zM162 144h4v1h-4zM163 148h3v1h-3zM164 152h3v1h-3zM165 156h2v1h-2zM166 160h2v1h-2zM167 164h2v1h-2zM168 168h2v1h-2zM80 92h8v1h-8zM76 96h10v1h-10zM74 100h12v1h-12zM72 104h14v1h-14zM70 108h14v1h-14zM69 112h14v1h-14zM68 116h14v1h-14zM68 120h14v1h-14zM68 124h14v1h-14zM69 128h13v1h-13zM70 132h12v1h-12zM72 136h10v1h-10zM74 140h8v1h-8zM76 144h6v1h-6zM78 148h4v1h-4zM80 152h3v1h-3zM81 156h2v1h-2zM82 160h2v1h-2z"/>
    </g>

    <!-- Group 9 — background scatter for depth -->
    <g opacity="0"><animate attributeName="opacity" values="0;1" dur="0.9s" begin="0.76s" fill="freeze" calcMode="spline" keyTimes="0;1" keySplines=".4 0 .2 1"/>
    <path d="M55 95h2v1h-2zM200 98h2v1h-2zM50 108h1v1h-1zM208 110h1v1h-1zM48 120h1v1h-1zM212 122h1v1h-1zM46 133h1v1h-1zM215 135h1v1h-1zM45 145h1v1h-1zM218 148h1v1h-1zM44 158h1v1h-1zM220 160h1v1h-1zM43 170h1v1h-1zM222 172h1v1h-1zM42 182h1v1h-1zM224 184h1v1h-1zM42 195h1v1h-1zM226 197h1v1h-1zM42 207h1v1h-1zM228 208h1v1h-1zM43 218h1v1h-1zM228 220h1v1h-1zM44 230h1v1h-1zM227 232h1v1h-1zM45 242h1v1h-1zM226 244h1v1h-1zM48 252h1v1h-1zM224 255h1v1h-1zM52 262h1v1h-1zM220 265h1v1h-1zM58 272h1v1h-1zM215 275h1v1h-1zM65 282h1v1h-1zM208 285h1v1h-1zM75 290h1v1h-1zM200 292h1v1h-1z"/>
    </g>

    <!-- Group 10 — very fine highlights -->
    <g opacity="0"><animate attributeName="opacity" values="0;1" dur="0.9s" begin="0.83s" fill="freeze" calcMode="spline" keyTimes="0;1" keySplines=".4 0 .2 1"/>
    <path d="M127 92h6v1h-6zM126 96h8v1h-8zM124 100h10v1h-10zM122 104h6v1h-6zM132 104h6v1h-6zM120 108h5v1h-5zM135 108h5v1h-5zM120 112h4v1h-4zM136 112h4v1h-4zM119 116h4v1h-4zM137 116h4v1h-4zM118 120h4v1h-4zM138 120h4v1h-4zM118 124h3v1h-3zM139 124h3v1h-3zM117 128h4v1h-4zM139 128h4v1h-4zM117 132h5v1h-5zM138 132h5v1h-5zM118 136h5v1h-5zM137 136h5v1h-5zM119 140h4v1h-4zM137 140h4v1h-4zM120 144h3v1h-3zM137 144h3v1h-3zM121 148h2v1h-2zM137 148h2v1h-2zM122 152h1v1h-1zM137 152h1v1h-1zM118 170h3v1h-3zM139 170h3v1h-3zM116 174h4v1h-4zM140 174h4v1h-4zM114 178h5v1h-5zM141 178h5v1h-5zM112 182h6v1h-6zM142 182h6v1h-6zM110 186h7v1h-7zM143 186h7v1h-7z"/>
    </g>

  </g><!-- end portrait dot group -->

  <!-- ─────────────────────────────────────────────── -->
  <!-- Portrait frame border glow line                -->
  <!-- ─────────────────────────────────────────────── -->
  <rect x="36" y="84" width="400" height="492" rx="10" fill="none" stroke="url(#accent)" stroke-width="1.5" opacity="0.7"/>

  <!-- Vertical separator -->
  <line x1="446" y1="60" x2="446" y2="582" stroke="rgba(124,58,237,0.3)" stroke-width="1"/>
  <line x1="447" y1="60" x2="447" y2="582" stroke="rgba(34,211,238,0.1)" stroke-width="0.5"/>

  <!-- ─────────────────────────────────────────────── -->
  <!-- RIGHT: SYSTEM.INFO panel                       -->
  <!-- ─────────────────────────────────────────────── -->

  <text x="460" y="74" font-size="10" letter-spacing="3" fill="#475569">SYSTEM.INFO</text>

  <!-- LIVE badge -->
  <g transform="translate(1050, 60)">
    <rect width="88" height="22" rx="11" fill="rgba(239,68,68,0.12)" stroke="#EF4444" stroke-width="0.8"/>
    <circle cx="16" cy="11" r="3.5" fill="#EF4444">
      <animate attributeName="opacity" values="0.3;1;0.3" dur="1.6s" repeatCount="indefinite"/>
    </circle>
    <text x="28" y="15.5" font-size="11" letter-spacing="2" fill="#EF4444">LIVE</text>
  </g>

  <!-- Top border line of info area -->
  <line x1="456" y1="84" x2="1160" y2="84" stroke="rgba(255,255,255,0.07)"/>

  <!-- Name heading -->
  <g opacity="0">
    <animate attributeName="opacity" values="0;1" dur="0.5s" begin="0.30s" fill="freeze"/>
    <text x="460" y="130" font-size="36" font-weight="800" letter-spacing="3" fill="#F8FAFC" filter="url(#txtGlow)">MONINGI ROHIT</text>
  </g>

  <!-- Subtitle -->
  <g opacity="0">
    <animate attributeName="opacity" values="0;1" dur="0.5s" begin="0.40s" fill="freeze"/>
    <text x="462" y="156" font-size="13" font-style="italic" fill="#5D7A8C" letter-spacing="0.8">full-stack systems · ai products · motion-rich interfaces</text>
  </g>

  <!-- Horizontal rule below name -->
  <line x1="456" y1="166" x2="1160" y2="166" stroke="rgba(124,58,237,0.25)" stroke-dasharray="4,8"/>

  <!-- Info rows — label muted, value bright, dotted leaders -->
  <!-- Row 1: Subject/Origin -->
  <g opacity="0">
    <animate attributeName="opacity" values="0;1" dur="0.32s" begin="0.50s" fill="freeze"/>
    <text x="462" y="196" font-size="13" fill="#475569" letter-spacing="0.5">ORIGIN</text>
    <text x="462" y="196" font-size="13" fill="#475569" letter-spacing="0.5" textLength="580" lengthAdjust="spacingAndGlyphs">ORIGIN<tspan fill="rgba(71,85,105,0.4)">.................................................</tspan><tspan fill="#E2E8F0">BANGALORE, INDIA</tspan></text>
  </g>

  <!-- Row 2: Education -->
  <g opacity="0">
    <animate attributeName="opacity" values="0;1" dur="0.32s" begin="0.58s" fill="freeze"/>
    <text x="462" y="226" font-size="13" fill="#475569" textLength="580" lengthAdjust="spacingAndGlyphs">EDUCATION<tspan fill="rgba(71,85,105,0.4)">.............................................</tspan><tspan fill="#E2E8F0">B.TECH IT — VIT '26</tspan></text>
  </g>

  <!-- Row 3: Current role -->
  <g opacity="0">
    <animate attributeName="opacity" values="0;1" dur="0.32s" begin="0.66s" fill="freeze"/>
    <text x="462" y="256" font-size="13" fill="#475569" textLength="580" lengthAdjust="spacingAndGlyphs">CURRENT<tspan fill="rgba(71,85,105,0.4)">..............................................</tspan><tspan fill="#A78BFA">AI / BACKEND — PROSPIENT</tspan></text>
  </g>

  <!-- Row 4: Upcoming -->
  <g opacity="0">
    <animate attributeName="opacity" values="0;1" dur="0.32s" begin="0.74s" fill="freeze"/>
    <text x="462" y="286" font-size="13" fill="#475569" textLength="580" lengthAdjust="spacingAndGlyphs">UP NEXT<tspan fill="rgba(71,85,105,0.4)">................................................</tspan><tspan fill="#22D3EE">BOSCH GST · AUG 2026</tspan></text>
  </g>

  <!-- Row 5: Core web -->
  <g opacity="0">
    <animate attributeName="opacity" values="0;1" dur="0.32s" begin="0.82s" fill="freeze"/>
    <text x="462" y="316" font-size="13" fill="#475569" textLength="580" lengthAdjust="spacingAndGlyphs">CORE.WEB<tspan fill="rgba(71,85,105,0.4)">.............................................</tspan><tspan fill="#E2E8F0">NEXT 16 / REACT 19 / TS</tspan></text>
  </g>

  <!-- Row 6: Core backend/API -->
  <g opacity="0">
    <animate attributeName="opacity" values="0;1" dur="0.32s" begin="0.90s" fill="freeze"/>
    <text x="462" y="346" font-size="13" fill="#475569" textLength="580" lengthAdjust="spacingAndGlyphs">CORE.API<tspan fill="rgba(71,85,105,0.4)">..............................................</tspan><tspan fill="#E2E8F0">FASTAPI / NODE / POSTGRES</tspan></text>
  </g>

  <!-- Row 7: AI/ML -->
  <g opacity="0">
    <animate attributeName="opacity" values="0;1" dur="0.32s" begin="0.98s" fill="freeze"/>
    <text x="462" y="376" font-size="13" fill="#475569" textLength="580" lengthAdjust="spacingAndGlyphs">CORE.AI<tspan fill="rgba(71,85,105,0.4)">..................................................</tspan><tspan fill="#10B981">PYTORCH / TF / GRAD-CAM</tspan></text>
  </g>

  <!-- Row 8: Cloud -->
  <g opacity="0">
    <animate attributeName="opacity" values="0;1" dur="0.32s" begin="1.06s" fill="freeze"/>
    <text x="462" y="406" font-size="13" fill="#475569" textLength="580" lengthAdjust="spacingAndGlyphs">CLOUD<tspan fill="rgba(71,85,105,0.4)">.....................................................</tspan><tspan fill="#E2E8F0">AWS / SUPABASE / VERCEL</tspan></text>
  </g>

  <!-- Row 9: IEEE -->
  <g opacity="0">
    <animate attributeName="opacity" values="0;1" dur="0.32s" begin="1.14s" fill="freeze"/>
    <text x="462" y="436" font-size="13" fill="#475569" textLength="580" lengthAdjust="spacingAndGlyphs">RESEARCH<tspan fill="rgba(71,85,105,0.4)">..............................................</tspan><tspan fill="#A78BFA">IEEE PUBLISHED · 2024</tspan></text>
  </g>

  <!-- Row 10: Status -->
  <g opacity="0">
    <animate attributeName="opacity" values="0;1" dur="0.32s" begin="1.22s" fill="freeze"/>
    <text x="462" y="466" font-size="13" fill="#475569" textLength="580" lengthAdjust="spacingAndGlyphs">STATUS<tspan fill="rgba(71,85,105,0.4)">..................................................</tspan><tspan fill="#10B981">BUILDING + SHIPPING 🚀</tspan></text>
  </g>

  <!-- Divider -->
  <line x1="456" y1="478" x2="1160" y2="478" stroke="rgba(34,211,238,0.15)" stroke-dasharray="2,6"/>

  <!-- Prompt lines -->
  <g opacity="0">
    <animate attributeName="opacity" values="0;1" dur="0.4s" begin="1.30s" fill="freeze"/>
    <text x="462" y="502" font-size="13" fill="#10B981">❯ portfolio</text>
    <text x="540" y="502" font-size="13" fill="#475569"> ·· </text>
    <text x="558" y="502" font-size="13" fill="#94A3B8">rohitmoningi.in</text>
  </g>
  <g opacity="0">
    <animate attributeName="opacity" values="0;1" dur="0.4s" begin="1.38s" fill="freeze"/>
    <text x="462" y="522" font-size="13" fill="#22D3EE">❯ linkedin</text>
    <text x="536" y="522" font-size="13" fill="#475569"> ·· </text>
    <text x="554" y="522" font-size="13" fill="#94A3B8">/in/moningi-rohit</text>
    <!-- Blinking cursor -->
    <rect x="688" y="508" width="8" height="14" rx="1" fill="#94A3B8">
      <animate attributeName="opacity" values="1;0;1" dur="1.0s" repeatCount="indefinite"/>
    </rect>
  </g>

  <!-- Bottom divider -->
  <line x1="456" y1="538" x2="1160" y2="538" stroke="rgba(255,255,255,0.06)"/>

  <!-- Project cards — bottom row -->
  <!-- Card 1 -->
  <g opacity="0">
    <animate attributeName="opacity" values="0;1" dur="0.4s" begin="1.10s" fill="freeze"/>
    <rect x="460" y="548" width="218" height="50" rx="10" fill="rgba(124,58,237,0.08)" stroke="rgba(124,58,237,0.3)" stroke-width="0.8"/>
    <text x="476" y="567" font-size="9" letter-spacing="2" fill="#7C3AED">LIVE BUILD</text>
    <text x="476" y="585" font-size="12" font-weight="600" fill="#F1F5F9">Sri Lalitha Noodles</text>
  </g>

  <!-- Card 2 -->
  <g opacity="0">
    <animate attributeName="opacity" values="0;1" dur="0.4s" begin="1.20s" fill="freeze"/>
    <rect x="690" y="548" width="218" height="50" rx="10" fill="rgba(34,211,238,0.06)" stroke="rgba(34,211,238,0.25)" stroke-width="0.8"/>
    <text x="706" y="567" font-size="9" letter-spacing="2" fill="#22D3EE">RESEARCH</text>
    <text x="706" y="585" font-size="12" font-weight="600" fill="#F1F5F9">IEEE ECG · Grad-CAM</text>
  </g>

  <!-- Card 3 -->
  <g opacity="0">
    <animate attributeName="opacity" values="0;1" dur="0.4s" begin="1.30s" fill="freeze"/>
    <rect x="920" y="548" width="218" height="50" rx="10" fill="rgba(16,185,129,0.06)" stroke="rgba(16,185,129,0.25)" stroke-width="0.8"/>
    <text x="936" y="567" font-size="9" letter-spacing="2" fill="#10B981">SYSTEMS</text>
    <text x="936" y="585" font-size="12" font-weight="600" fill="#F1F5F9">Command Center SaaS</text>
  </g>

</g><!-- end clip-path group -->

<!-- Terminal window border -->
<rect x="2" y="2" width="1176" height="606" rx="18" fill="none" stroke="url(#accent)" stroke-width="1.2" opacity="0.6"/>
<!-- Outer ambient glow -->
<rect x="0" y="0" width="1180" height="610" rx="20" fill="none" stroke="rgba(124,58,237,0.15)" stroke-width="3" filter="url(#glow8)" opacity="0.8"/>

</svg>
